<svg width="117" height="26" viewBox="0 0 117 26" fill="none" xmlns="http://www.w3.org/2000/svg">
<path d="M18.7198 0.216014V20.16L4.42777 0.216014H-0.000234246V25.416H3.59977V4.93202L18.3598 25.416H22.3198V0.216014H18.7198ZM48.7367 0.216014V5.00401C46.6487 2.08802 43.4087 1.45435e-05 39.7007 1.45435e-05C32.4287 1.45435e-05 27.1727 5.40001 27.1727 12.816C27.1727 20.232 32.4287 25.632 39.7007 25.632C43.4087 25.632 46.6487 23.544 48.7367 20.628V25.416H52.2287V0.216014H48.7367ZM39.8447 22.32C34.6967 22.32 30.9527 18.324 30.9527 12.816C30.9527 7.30801 34.6967 3.31201 39.8447 3.31201C44.9927 3.31201 48.7367 7.30801 48.7367 12.816C48.7367 18.324 44.9927 22.32 39.8447 22.32ZM88.5907 0.216014H83.4427L73.7227 21.168L63.9667 0.216014H58.7107V25.416H62.3107V4.89601L71.8147 25.416H75.4147L84.9907 4.71601V25.416H88.5907V0.216014ZM105.682 25.776C111.946 25.776 116.662 21.204 116.662 15.12V0.216014H113.062V15.12C113.062 19.224 109.894 22.32 105.682 22.32C101.47 22.32 98.3023 19.224 98.3023 15.12V0.216014H94.7023V15.12C94.7023 21.204 99.4183 25.776 105.682 25.776Z" fill="#F1F5F4"/>
</svg>
